<svg width="1032" height="651" viewBox="0 0 1032 651" fill="none" xmlns="http://www.w3.org/2000/svg">
<circle cx="237.5" cy="203.5" r="9" fill="#1B1B1B" stroke="#1B1B1B"/>
<circle cx="13.5" cy="493.5" r="9" fill="#1B1B1B" stroke="#1B1B1B"/>
<circle cx="433.5" cy="637.5" r="9" fill="#1B1B1B" stroke="#1B1B1B"/>
<circle cx="237.5" cy="203.5" r="13" stroke="#1B1B1B"/>
<circle cx="515.5" cy="74.5" r="9" fill="#1B1B1B" stroke="#1B1B1B"/>
<circle cx="515.5" cy="74.5" r="13" stroke="#1B1B1B"/>
<circle cx="13.5" cy="493.5" r="13" stroke="#1B1B1B"/>
<circle cx="433.5" cy="637.5" r="13" stroke="#1B1B1B"/>
<circle cx="599.5" cy="492.5" r="9" fill="#1B1B1B" stroke="#1B1B1B"/>
<circle cx="599.5" cy="492.5" r="13" stroke="#1B1B1B"/>
<circle cx="1018.5" cy="637.5" r="9" fill="#1B1B1B" stroke="#1B1B1B"/>
<circle cx="1018.5" cy="637.5" r="13" stroke="#1B1B1B"/>
<line x1="13.5" y1="473.019" x2="13.5" y2="0.019165" stroke="#1B1B1B" stroke-opacity="0.15"/>
<circle cx="1018.5" cy="347.5" r="9" fill="#1B1B1B" stroke="#1B1B1B"/>
<circle cx="1018.5" cy="347.5" r="13" stroke="#1B1B1B"/>
<line x1="433.5" x2="433.5" y2="617" stroke="#1B1B1B" stroke-opacity="0.15"/>
<line x1="599.5" x2="599.5" y2="471" stroke="#1B1B1B" stroke-opacity="0.15"/>
<line x1="237.5" y1="183" x2="237.5" stroke="#1B1B1B" stroke-opacity="0.15"/>
<line x1="1018.5" y1="612" x2="1018.5" y2="372" stroke="#1B1B1B" stroke-opacity="0.15"/>
<line x1="1018.5" y1="323" x2="1018.5" stroke="#1B1B1B" stroke-opacity="0.15"/>
<line x1="237.5" y1="289" x2="237.5" y2="225" stroke="#1B1B1B" stroke-opacity="0.15"/>
<line x1="515.5" x2="515.5" y2="54" stroke="#1B1B1B" stroke-opacity="0.15"/>
</svg>
